<svg width="72" height="72" viewBox="0 0 72 72" fill="none" xmlns="http://www.w3.org/2000/svg">
<rect x="0.5" y="0.5" width="71" height="71" rx="11.5" fill="#141414"/>
<rect x="0.5" y="0.5" width="71" height="71" rx="11.5" stroke="#1F1F1F"/>
<g clip-path="url(#clip0_184_882)">
<foreignObject x="7.40356" y="11" width="57.6069" height="49.1974"><div xmlns="http://www.w3.org/1999/xhtml" style="backdrop-filter:blur(6px);clip-path:url(#bgblur_1_184_882_clip_path);height:100%;width:100%"></div></foreignObject><g data-figma-bg-blur-radius="12">
<mask id="path-2-inside-1_184_882" fill="white">
<path fill-rule="evenodd" clip-rule="evenodd" d="M35.3114 28.5942C35.603 28.593 35.8942 28.5918 36.1842 28.5918C36.4843 28.5918 36.7856 28.593 37.0877 28.5942C37.6941 28.5965 38.3037 28.5988 38.9133 28.5918C39.858 28.5709 40.3934 28.0358 40.4039 27.0811C40.4144 26.2418 40.4144 25.4025 40.4039 24.5632C40.4039 23.5665 39.8475 23 38.8504 23H33.5495C32.5628 23.0105 32.017 23.5665 32.0065 24.5737V27.0391C32.0065 28.0463 32.5418 28.5813 33.56 28.5918C34.1412 28.5988 34.7271 28.5965 35.3114 28.5942ZM47.1113 31.4035H36.1947H25.3306C23.3362 31.4035 22.2341 32.5051 22.2131 34.5194C22.2026 35.4007 22.0031 35.6 21.1319 35.6C21.0895 35.6 21.0483 35.5988 21.0075 35.5976C20.9271 35.5953 20.8481 35.593 20.7645 35.6C19.9878 35.6525 19.421 36.198 19.4105 36.9848C19.4 38.8523 19.4 40.7302 19.421 42.5977C19.421 43.4055 19.9983 43.951 20.817 43.993H21.3419C21.9507 44.014 22.1921 44.2448 22.2236 44.8533V45.3254C22.2551 47.025 23.4202 48.179 25.1207 48.1895C26.4852 48.2 27.8498 48.2 29.2144 48.1895C30.4425 48.1895 31.5552 47.8223 32.5419 47.0984C32.8935 46.8361 33.2425 46.5739 33.5915 46.3116C33.9405 46.0493 34.2895 45.787 34.6412 45.5247C35.7434 44.7064 36.7091 44.7064 37.8112 45.5352C38.1252 45.7659 38.4371 46.0007 38.7496 46.236C39.1477 46.5356 39.5468 46.836 39.9525 47.1299C40.6768 47.6649 41.4851 48.0636 42.3983 48.1056C43.7669 48.1698 45.1436 48.1779 46.5213 48.1859C46.7179 48.187 46.9146 48.1882 47.1113 48.1895C49.0427 48.2 50.1868 47.0669 50.1973 45.147C50.2078 44.1609 50.3758 43.993 51.3625 43.993C52.4646 43.993 53.0105 43.4579 53.0105 42.3669V37.2261C53.0105 36.135 52.4646 35.6 51.3625 35.6C50.3758 35.5895 50.2078 35.4321 50.1973 34.446C50.1763 32.5261 49.0427 31.4035 47.1113 31.4035Z"/>
</mask>
<path fill-rule="evenodd" clip-rule="evenodd" d="M35.3114 28.5942C35.603 28.593 35.8942 28.5918 36.1842 28.5918C36.4843 28.5918 36.7856 28.593 37.0877 28.5942C37.6941 28.5965 38.3037 28.5988 38.9133 28.5918C39.858 28.5709 40.3934 28.0358 40.4039 27.0811C40.4144 26.2418 40.4144 25.4025 40.4039 24.5632C40.4039 23.5665 39.8475 23 38.8504 23H33.5495C32.5628 23.0105 32.017 23.5665 32.0065 24.5737V27.0391C32.0065 28.0463 32.5418 28.5813 33.56 28.5918C34.1412 28.5988 34.7271 28.5965 35.3114 28.5942ZM47.1113 31.4035H36.1947H25.3306C23.3362 31.4035 22.2341 32.5051 22.2131 34.5194C22.2026 35.4007 22.0031 35.6 21.1319 35.6C21.0895 35.6 21.0483 35.5988 21.0075 35.5976C20.9271 35.5953 20.8481 35.593 20.7645 35.6C19.9878 35.6525 19.421 36.198 19.4105 36.9848C19.4 38.8523 19.4 40.7302 19.421 42.5977C19.421 43.4055 19.9983 43.951 20.817 43.993H21.3419C21.9507 44.014 22.1921 44.2448 22.2236 44.8533V45.3254C22.2551 47.025 23.4202 48.179 25.1207 48.1895C26.4852 48.2 27.8498 48.2 29.2144 48.1895C30.4425 48.1895 31.5552 47.8223 32.5419 47.0984C32.8935 46.8361 33.2425 46.5739 33.5915 46.3116C33.9405 46.0493 34.2895 45.787 34.6412 45.5247C35.7434 44.7064 36.7091 44.7064 37.8112 45.5352C38.1252 45.7659 38.4371 46.0007 38.7496 46.236C39.1477 46.5356 39.5468 46.836 39.9525 47.1299C40.6768 47.6649 41.4851 48.0636 42.3983 48.1056C43.7669 48.1698 45.1436 48.1779 46.5213 48.1859C46.7179 48.187 46.9146 48.1882 47.1113 48.1895C49.0427 48.2 50.1868 47.0669 50.1973 45.147C50.2078 44.1609 50.3758 43.993 51.3625 43.993C52.4646 43.993 53.0105 43.4579 53.0105 42.3669V37.2261C53.0105 36.135 52.4646 35.6 51.3625 35.6C50.3758 35.5895 50.2078 35.4321 50.1973 34.446C50.1763 32.5261 49.0427 31.4035 47.1113 31.4035Z" fill="#E60000"/>
<path d="M35.3114 28.5942L35.3074 27.5942H35.3074L35.3114 28.5942ZM37.0877 28.5942L37.0915 27.5942V27.5942L37.0877 28.5942ZM38.9133 28.5918L38.9248 29.5918L38.9355 29.5916L38.9133 28.5918ZM40.4039 27.0811L39.4039 27.0686L39.4039 27.0701L40.4039 27.0811ZM40.4039 24.5632H39.4038L39.4039 24.5757L40.4039 24.5632ZM33.5495 23V21.9999L33.5389 22.0001L33.5495 23ZM32.0065 24.5737L31.0065 24.5633V24.5737H32.0065ZM33.56 28.5918L33.572 27.5919L33.5703 27.5919L33.56 28.5918ZM22.2131 34.5194L23.213 34.5313L23.213 34.5298L22.2131 34.5194ZM21.0075 35.5976L21.0364 34.598L21.0363 34.598L21.0075 35.5976ZM20.7645 35.6L20.8319 36.5977L20.8397 36.5972L20.8475 36.5965L20.7645 35.6ZM19.4105 36.9848L18.4105 36.9715L18.4105 36.9792L19.4105 36.9848ZM19.421 42.5977H20.421L20.4209 42.5864L19.421 42.5977ZM20.817 43.993L20.7658 44.9917L20.7914 44.993H20.817V43.993ZM21.3419 43.993L21.3763 42.9936L21.3591 42.993H21.3419V43.993ZM22.2236 44.8533H23.2236V44.8274L23.2222 44.8016L22.2236 44.8533ZM22.2236 45.3254H21.2236V45.3347L21.2238 45.3439L22.2236 45.3254ZM25.1207 48.1895L25.1284 47.1895L25.1268 47.1895L25.1207 48.1895ZM29.2144 48.1895V47.1895L29.2067 47.1895L29.2144 48.1895ZM32.5419 47.0984L33.1334 47.9047L33.1397 47.9L32.5419 47.0984ZM33.5915 46.3116L32.9907 45.5122L32.9907 45.5122L33.5915 46.3116ZM34.6412 45.5247L34.0451 44.7218L34.0433 44.7231L34.6412 45.5247ZM37.8112 45.5352L37.2102 46.3345L37.219 46.341L37.8112 45.5352ZM38.7496 46.236L38.1483 47.035V47.035L38.7496 46.236ZM39.9525 47.1299L40.5468 46.3255L40.5391 46.32L39.9525 47.1299ZM42.3983 48.1056L42.4452 47.1067L42.4442 47.1066L42.3983 48.1056ZM46.5213 48.1859L46.5154 49.1859H46.5154L46.5213 48.1859ZM47.1113 48.1895L47.1046 49.1895L47.1059 49.1895L47.1113 48.1895ZM50.1973 45.147L49.1974 45.1364L49.1974 45.1416L50.1973 45.147ZM51.3625 35.6L51.3518 36.6H51.3625V35.6ZM50.1973 34.446L51.1973 34.4353L51.1973 34.435L50.1973 34.446ZM36.1842 27.5918C35.8918 27.5918 35.5986 27.593 35.3074 27.5942L35.3154 29.5942C35.6073 29.593 35.8965 29.5918 36.1842 29.5918V27.5918ZM37.0915 27.5942C36.7898 27.593 36.4866 27.5918 36.1842 27.5918V29.5918C36.4821 29.5918 36.7814 29.593 37.0838 29.5942L37.0915 27.5942ZM38.9018 27.5919C38.3012 27.5988 37.6993 27.5965 37.0915 27.5942L37.0838 29.5942C37.689 29.5965 38.3063 29.5989 38.9248 29.5918L38.9018 27.5919ZM39.4039 27.0701C39.4007 27.365 39.3209 27.4603 39.2984 27.483C39.2756 27.506 39.1817 27.5856 38.8911 27.5921L38.9355 29.5916C39.5896 29.5771 40.2358 29.3787 40.7195 28.8903C41.2035 28.4015 41.3966 27.7519 41.4038 27.0921L39.4039 27.0701ZM39.4039 24.5757C39.4143 25.4067 39.4143 26.2376 39.4039 27.0686L41.4038 27.0936C41.4144 26.246 41.4144 25.3983 41.4038 24.5507L39.4039 24.5757ZM38.8504 24C39.1621 24 39.2644 24.0851 39.2906 24.1116C39.3183 24.1396 39.4039 24.2467 39.4039 24.5632H41.4039C41.4039 23.883 41.2112 23.2085 40.7115 22.7041C40.2103 22.1981 39.5358 22 38.8504 22V24ZM33.5495 24H38.8504V22H33.5495V24ZM33.0064 24.5841C33.0099 24.2535 33.0976 24.1422 33.1259 24.1133C33.1513 24.0874 33.2502 24.0032 33.5601 23.9999L33.5389 22.0001C32.8621 22.0073 32.1948 22.2064 31.698 22.7129C31.2041 23.2165 31.0136 23.8867 31.0065 24.5633L33.0064 24.5841ZM33.0065 27.0391V24.5737H31.0065V27.0391H33.0065ZM33.5703 27.5919C33.226 27.5883 33.1258 27.4993 33.1084 27.4819C33.0927 27.4663 33.0065 27.3722 33.0065 27.0391H31.0065C31.0065 27.7132 31.1879 28.3902 31.6945 28.8965C32.1993 29.4011 32.8758 29.5848 33.5497 29.5918L33.5703 27.5919ZM35.3074 27.5942C34.7217 27.5965 34.1439 27.5988 33.572 27.5919L33.548 29.5918C34.1385 29.5989 34.7325 29.5965 35.3154 29.5942L35.3074 27.5942ZM36.1947 32.4035H47.1113V30.4035H36.1947V32.4035ZM25.3306 32.4035H36.1947V30.4035H25.3306V32.4035ZM23.213 34.5298C23.2217 33.6975 23.4498 33.2021 23.7387 32.9134C24.0261 32.6261 24.5136 32.4035 25.3306 32.4035V30.4035C24.1532 30.4035 23.0924 30.7317 22.3249 31.4988C21.5589 32.2644 21.2255 33.3269 21.2131 34.509L23.213 34.5298ZM21.1319 36.6C21.5445 36.6 22.2193 36.5801 22.7022 36.0975C23.181 35.6189 23.2081 34.9463 23.213 34.5313L21.2132 34.5075C21.212 34.6003 21.2085 34.6723 21.2035 34.7283C21.1983 34.7849 21.1923 34.8161 21.1892 34.8295C21.1861 34.8425 21.188 34.8285 21.2027 34.7993C21.2186 34.7676 21.246 34.7252 21.2884 34.6829C21.3308 34.6405 21.3739 34.6125 21.4073 34.5958C21.4383 34.5804 21.4541 34.5779 21.4432 34.5804C21.4317 34.5831 21.4024 34.5885 21.3476 34.5929C21.2933 34.5973 21.2231 34.6 21.1319 34.6V36.6ZM20.9787 36.5972C21.0174 36.5983 21.0728 36.6 21.1319 36.6V34.6C21.1062 34.6 21.0792 34.5993 21.0364 34.598L20.9787 36.5972ZM20.8475 36.5965C20.8668 36.5949 20.8911 36.5947 20.9787 36.5972L21.0363 34.598C20.963 34.5959 20.8295 34.5911 20.6815 34.6034L20.8475 36.5965ZM20.4104 36.9982C20.4123 36.852 20.4607 36.7709 20.509 36.7224C20.5614 36.6697 20.6614 36.6092 20.8319 36.5977L20.6972 34.6023C19.4457 34.6868 18.4286 35.6197 18.4105 36.9715L20.4104 36.9982ZM20.4209 42.5864C20.4 40.7263 20.4 38.8543 20.4104 36.9905L18.4105 36.9792C18.4 38.8502 18.3999 40.7341 18.421 42.6089L20.4209 42.5864ZM20.8682 42.9943C20.6684 42.9841 20.5621 42.9177 20.5132 42.8696C20.4702 42.8274 20.421 42.7517 20.421 42.5977H18.421C18.421 43.2515 18.6603 43.8525 19.1107 44.2955C19.5552 44.7326 20.1469 44.96 20.7658 44.9917L20.8682 42.9943ZM21.3419 42.993H20.817V44.993H21.3419V42.993ZM23.2222 44.8016C23.2016 44.4027 23.1053 43.8832 22.696 43.4856C22.2893 43.0905 21.7699 43.0072 21.3763 42.9936L21.3074 44.9924C21.3538 44.994 21.3866 44.9973 21.4084 45.0005C21.4301 45.0037 21.437 45.0062 21.4328 45.0049C21.4282 45.0034 21.4109 44.9975 21.386 44.9834C21.3604 44.9689 21.3312 44.948 21.3024 44.9201C21.2736 44.8921 21.2516 44.8631 21.2357 44.8369C21.2203 44.8115 21.2134 44.7931 21.2114 44.7871C21.2095 44.7816 21.2119 44.787 21.2153 44.8075C21.2188 44.8279 21.2226 44.8595 21.2249 44.905L23.2222 44.8016ZM23.2236 45.3254V44.8533H21.2236V45.3254H23.2236ZM25.1268 47.1895C24.5071 47.1857 24.0509 46.978 23.7495 46.6799C23.448 46.3817 23.2349 45.927 23.2234 45.3069L21.2238 45.3439C21.2438 46.4234 21.629 47.3955 22.343 48.1018C23.0572 48.8083 24.0338 49.1828 25.1145 49.1895L25.1268 47.1895ZM29.2067 47.1895C27.8473 47.2 26.4878 47.2 25.1284 47.1895L25.113 49.1895C26.4827 49.2 27.8524 49.2 29.2221 49.1895L29.2067 47.1895ZM31.9503 46.2921C31.1342 46.8909 30.2285 47.1895 29.2144 47.1895V49.1895C30.6565 49.1895 31.9761 48.7537 33.1334 47.9047L31.9503 46.2921ZM32.9907 45.5122C32.6415 45.7746 32.2939 46.0358 31.944 46.2968L33.1397 47.9C33.493 47.6365 33.8435 47.3731 34.1922 47.111L32.9907 45.5122ZM34.0433 44.7231C33.69 44.9867 33.3395 45.2501 32.9907 45.5122L34.1922 47.111C34.5415 46.8486 34.8891 46.5873 35.2391 46.3263L34.0433 44.7231ZM38.4122 44.736C37.7521 44.2396 37.0295 43.9143 36.2287 43.9123C35.4281 43.9103 34.7052 44.2317 34.0451 44.7218L35.2373 46.3276C35.6794 45.9994 35.9904 45.9117 36.2237 45.9123C36.4568 45.9129 36.7682 46.002 37.2102 46.3345L38.4122 44.736ZM39.351 45.437C39.0392 45.2023 38.7227 44.9641 38.4034 44.7294L37.219 46.341C37.5276 46.5678 37.8349 46.7991 38.1483 47.035L39.351 45.437ZM40.5391 46.32C40.1421 46.0324 39.7503 45.7376 39.351 45.437L38.1483 47.035C38.5451 47.3337 38.9516 47.6396 39.366 47.9398L40.5391 46.32ZM42.4442 47.1066C41.8026 47.0771 41.1835 46.796 40.5467 46.3256L39.3583 47.9342C40.1702 48.5339 41.1675 49.0501 42.3524 49.1045L42.4442 47.1066ZM46.5271 47.1859C45.1459 47.1779 43.7898 47.1698 42.4452 47.1067L42.3514 49.1045C43.744 49.1699 45.1413 49.1779 46.5154 49.1859L46.5271 47.1859ZM47.118 47.1895C46.9208 47.1882 46.7237 47.1871 46.5271 47.1859L46.5154 49.1859C46.7122 49.187 46.9084 49.1882 47.1046 49.1895L47.118 47.1895ZM49.1974 45.1416C49.1932 45.9041 48.9684 46.3881 48.6722 46.6805C48.3757 46.9731 47.8863 47.1937 47.1167 47.1895L47.1059 49.1895C48.2677 49.1958 49.3161 48.8551 50.0772 48.1039C50.8385 47.3524 51.191 46.3099 51.1973 45.1525L49.1974 45.1416ZM51.3625 42.993C51.1022 42.993 50.8246 43.0027 50.5682 43.0543C50.3009 43.1082 49.9798 43.2223 49.7097 43.4901C49.4398 43.7577 49.323 44.0776 49.2667 44.3439C49.2127 44.5994 49.2002 44.8765 49.1974 45.1364L51.1973 45.1577C51.1985 45.0469 51.2018 44.9598 51.2071 44.8901C51.2124 44.8198 51.219 44.7786 51.2234 44.7575C51.2325 44.7149 51.2212 44.8079 51.118 44.9103C51.0145 45.0128 50.9211 45.0234 50.9631 45.015C50.984 45.0107 51.025 45.0046 51.0952 45C51.1648 44.9954 51.2518 44.993 51.3625 44.993V42.993ZM52.0105 42.3669C52.0105 42.7581 51.9134 42.8615 51.898 42.8767C51.8797 42.8947 51.7668 42.993 51.3625 42.993V44.993C52.0603 44.993 52.7714 44.8238 53.3016 44.3015C53.8346 43.7764 54.0105 43.0667 54.0105 42.3669H52.0105ZM52.0105 37.2261V42.3669H54.0105V37.2261H52.0105ZM51.3625 36.6C51.7668 36.6 51.8797 36.6983 51.898 36.7163C51.9134 36.7315 52.0105 36.8349 52.0105 37.2261H54.0105C54.0105 36.5263 53.8346 35.8166 53.3016 35.2915C52.7714 34.7692 52.0603 34.6 51.3625 34.6V36.6ZM49.1974 34.4566C49.2002 34.7163 49.2126 34.9933 49.2669 35.2487C49.3236 35.5157 49.4415 35.8351 49.7125 36.1017C49.9823 36.3671 50.3019 36.4798 50.5652 36.5336C50.8185 36.5854 51.0938 36.5972 51.3518 36.5999L51.3731 34.6001C51.2614 34.5989 51.1732 34.5957 51.1024 34.5905C51.0309 34.5853 50.9885 34.5788 50.966 34.5742C50.9201 34.5648 51.012 34.5745 51.1151 34.676C51.2196 34.7787 51.2318 34.8732 51.2232 34.833C51.2189 34.8127 51.2124 34.7722 51.2071 34.7022C51.2018 34.6329 51.1985 34.5461 51.1973 34.4353L49.1974 34.4566ZM47.1113 32.4035C47.8841 32.4035 48.3725 32.6245 48.6682 32.9165C48.9638 33.2082 49.189 33.6911 49.1974 34.4569L51.1973 34.435C51.1847 33.2809 50.8326 32.2426 50.0732 31.4931C49.314 30.7437 48.2699 30.4035 47.1113 30.4035V32.4035Z" fill="#E60000" mask="url(#path-2-inside-1_184_882)"/>
</g>
</g>
<defs>
<clipPath id="bgblur_1_184_882_clip_path" transform="translate(-7.40356 -11)"><path fill-rule="evenodd" clip-rule="evenodd" d="M35.3114 28.5942C35.603 28.593 35.8942 28.5918 36.1842 28.5918C36.4843 28.5918 36.7856 28.593 37.0877 28.5942C37.6941 28.5965 38.3037 28.5988 38.9133 28.5918C39.858 28.5709 40.3934 28.0358 40.4039 27.0811C40.4144 26.2418 40.4144 25.4025 40.4039 24.5632C40.4039 23.5665 39.8475 23 38.8504 23H33.5495C32.5628 23.0105 32.017 23.5665 32.0065 24.5737V27.0391C32.0065 28.0463 32.5418 28.5813 33.56 28.5918C34.1412 28.5988 34.7271 28.5965 35.3114 28.5942ZM47.1113 31.4035H36.1947H25.3306C23.3362 31.4035 22.2341 32.5051 22.2131 34.5194C22.2026 35.4007 22.0031 35.6 21.1319 35.6C21.0895 35.6 21.0483 35.5988 21.0075 35.5976C20.9271 35.5953 20.8481 35.593 20.7645 35.6C19.9878 35.6525 19.421 36.198 19.4105 36.9848C19.4 38.8523 19.4 40.7302 19.421 42.5977C19.421 43.4055 19.9983 43.951 20.817 43.993H21.3419C21.9507 44.014 22.1921 44.2448 22.2236 44.8533V45.3254C22.2551 47.025 23.4202 48.179 25.1207 48.1895C26.4852 48.2 27.8498 48.2 29.2144 48.1895C30.4425 48.1895 31.5552 47.8223 32.5419 47.0984C32.8935 46.8361 33.2425 46.5739 33.5915 46.3116C33.9405 46.0493 34.2895 45.787 34.6412 45.5247C35.7434 44.7064 36.7091 44.7064 37.8112 45.5352C38.1252 45.7659 38.4371 46.0007 38.7496 46.236C39.1477 46.5356 39.5468 46.836 39.9525 47.1299C40.6768 47.6649 41.4851 48.0636 42.3983 48.1056C43.7669 48.1698 45.1436 48.1779 46.5213 48.1859C46.7179 48.187 46.9146 48.1882 47.1113 48.1895C49.0427 48.2 50.1868 47.0669 50.1973 45.147C50.2078 44.1609 50.3758 43.993 51.3625 43.993C52.4646 43.993 53.0105 43.4579 53.0105 42.3669V37.2261C53.0105 36.135 52.4646 35.6 51.3625 35.6C50.3758 35.5895 50.2078 35.4321 50.1973 34.446C50.1763 32.5261 49.0427 31.4035 47.1113 31.4035Z"/>
</clipPath><clipPath id="clip0_184_882">
<rect width="33.6" height="25.2" fill="white" transform="translate(19.3999 23)"/>
</clipPath>
</defs>
</svg>
